# xmcd CD database file
#
# Track frame offsets:
#	150
#	14738
#	29115
#	42643
#	56327
#	70172
#	84178
#	99476
#	116420
#	129182
#	144012
#	161779
#	183476
#	200068
#
# Disc length: 2918 seconds
#
# Revision: 0
# Processed by: cddbd v1.5.2PL0 Copyright (c) Steve Scherf et al.
# Submitted via: CDex 1.79
#
DISCID=c10b640e
DTITLE=Brooks Williams - Lucky Star
DYEAR=2018
DGENRE=Blues
TTITLE0=Bright Side of the Blues
TTITLE1=Always The Same
TTITLE2=Something You Got
TTITLE3=Mama's Song
TTITLE4=Gambling Man
TTITLE5=After You've Gone
TTITLE6=Here Comes The Blues
TTITLE7=No Easy Way Back
TTITLE8=Rock Me
TTITLE9=Jump That Train
TTITLE10=Whatever It Takes
TTITLE11=Going To New Orleans
TTITLE12=Rock Me (with Hans Theessink)
TTITLE13=Gambling Man (with Hans Theessink)
EXTD=YEAR: 2018
EXTT0=
EXTT1=
EXTT2=
EXTT3=
EXTT4=
EXTT5=
EXTT6=
EXTT7=
EXTT8=
EXTT9=
EXTT10=
EXTT11=
EXTT12=
EXTT13=
PLAYORDER=
